<mxfile host="app.diagrams.net" modified="2023-06-08T14:43:12.539Z" agent="Mozilla/5.0 (Macintosh; Intel Mac OS X 10_15_7) AppleWebKit/537.36 (KHTML, like Gecko) Chrome/114.0.0.0 Safari/537.36" etag="u8nIzg-a4P1PFFoSUOL9" version="21.3.7" type="device" pages="5">
  <diagram id="C5RBs43oDa-KdzZeNtuy" name="Diagramme de classe">
    <mxGraphModel dx="2120" dy="1224" grid="1" gridSize="10" guides="1" tooltips="1" connect="1" arrows="1" fold="1" page="1" pageScale="1" pageWidth="827" pageHeight="1169" math="0" shadow="0">
      <root>
        <mxCell id="WIyWlLk6GJQsqaUBKTNV-0" />
        <mxCell id="WIyWlLk6GJQsqaUBKTNV-1" parent="WIyWlLk6GJQsqaUBKTNV-0" />
        <mxCell id="zkfFHV4jXpPFQw0GAbJ--0" value="Users" style="swimlane;fontStyle=2;align=center;verticalAlign=top;childLayout=stackLayout;horizontal=1;startSize=26;horizontalStack=0;resizeParent=1;resizeLast=0;collapsible=1;marginBottom=0;rounded=0;shadow=0;strokeWidth=1;" parent="WIyWlLk6GJQsqaUBKTNV-1" vertex="1">
          <mxGeometry x="90" y="30" width="160" height="240" as="geometry">
            <mxRectangle x="230" y="140" width="160" height="26" as="alternateBounds" />
          </mxGeometry>
        </mxCell>
        <mxCell id="zkfFHV4jXpPFQw0GAbJ--1" value="id: bigint" style="text;align=left;verticalAlign=top;spacingLeft=4;spacingRight=4;overflow=hidden;rotatable=0;points=[[0,0.5],[1,0.5]];portConstraint=eastwest;" parent="zkfFHV4jXpPFQw0GAbJ--0" vertex="1">
          <mxGeometry y="26" width="160" height="26" as="geometry" />
        </mxCell>
        <mxCell id="zkfFHV4jXpPFQw0GAbJ--2" value="name: string" style="text;align=left;verticalAlign=top;spacingLeft=4;spacingRight=4;overflow=hidden;rotatable=0;points=[[0,0.5],[1,0.5]];portConstraint=eastwest;rounded=0;shadow=0;html=0;" parent="zkfFHV4jXpPFQw0GAbJ--0" vertex="1">
          <mxGeometry y="52" width="160" height="26" as="geometry" />
        </mxCell>
        <mxCell id="zkfFHV4jXpPFQw0GAbJ--3" value="email: string" style="text;align=left;verticalAlign=top;spacingLeft=4;spacingRight=4;overflow=hidden;rotatable=0;points=[[0,0.5],[1,0.5]];portConstraint=eastwest;rounded=0;shadow=0;html=0;" parent="zkfFHV4jXpPFQw0GAbJ--0" vertex="1">
          <mxGeometry y="78" width="160" height="32" as="geometry" />
        </mxCell>
        <mxCell id="flcdHSIcotMiygqK4Wnf-15" value="password : string" style="text;align=left;verticalAlign=top;spacingLeft=4;spacingRight=4;overflow=hidden;rotatable=0;points=[[0,0.5],[1,0.5]];portConstraint=eastwest;rounded=0;shadow=0;html=0;" vertex="1" parent="zkfFHV4jXpPFQw0GAbJ--0">
          <mxGeometry y="110" width="160" height="32" as="geometry" />
        </mxCell>
        <mxCell id="zkfFHV4jXpPFQw0GAbJ--4" value="" style="line;html=1;strokeWidth=1;align=left;verticalAlign=middle;spacingTop=-1;spacingLeft=3;spacingRight=3;rotatable=0;labelPosition=right;points=[];portConstraint=eastwest;" parent="zkfFHV4jXpPFQw0GAbJ--0" vertex="1">
          <mxGeometry y="142" width="160" height="8" as="geometry" />
        </mxCell>
        <mxCell id="zkfFHV4jXpPFQw0GAbJ--5" value="register()&#xa;login()&#xa;getallUsers&#xa;logout()&#xa;respondWithToken()" style="text;align=left;verticalAlign=top;spacingLeft=4;spacingRight=4;overflow=hidden;rotatable=0;points=[[0,0.5],[1,0.5]];portConstraint=eastwest;" parent="zkfFHV4jXpPFQw0GAbJ--0" vertex="1">
          <mxGeometry y="150" width="160" height="90" as="geometry" />
        </mxCell>
        <mxCell id="flcdHSIcotMiygqK4Wnf-50" style="edgeStyle=orthogonalEdgeStyle;rounded=0;orthogonalLoop=1;jettySize=auto;html=1;entryX=0.5;entryY=1;entryDx=0;entryDy=0;" edge="1" parent="WIyWlLk6GJQsqaUBKTNV-1" source="zkfFHV4jXpPFQw0GAbJ--6" target="zkfFHV4jXpPFQw0GAbJ--17">
          <mxGeometry relative="1" as="geometry" />
        </mxCell>
        <mxCell id="zkfFHV4jXpPFQw0GAbJ--6" value="Characters" style="swimlane;fontStyle=0;align=center;verticalAlign=top;childLayout=stackLayout;horizontal=1;startSize=26;horizontalStack=0;resizeParent=1;resizeLast=0;collapsible=1;marginBottom=0;rounded=0;shadow=0;strokeWidth=1;" parent="WIyWlLk6GJQsqaUBKTNV-1" vertex="1">
          <mxGeometry x="414" y="310" width="160" height="320" as="geometry">
            <mxRectangle x="130" y="380" width="160" height="26" as="alternateBounds" />
          </mxGeometry>
        </mxCell>
        <mxCell id="zkfFHV4jXpPFQw0GAbJ--7" value="id: bigint" style="text;align=left;verticalAlign=top;spacingLeft=4;spacingRight=4;overflow=hidden;rotatable=0;points=[[0,0.5],[1,0.5]];portConstraint=eastwest;" parent="zkfFHV4jXpPFQw0GAbJ--6" vertex="1">
          <mxGeometry y="26" width="160" height="26" as="geometry" />
        </mxCell>
        <mxCell id="zkfFHV4jXpPFQw0GAbJ--8" value="user_id: bigint" style="text;align=left;verticalAlign=top;spacingLeft=4;spacingRight=4;overflow=hidden;rotatable=0;points=[[0,0.5],[1,0.5]];portConstraint=eastwest;rounded=0;shadow=0;html=0;" parent="zkfFHV4jXpPFQw0GAbJ--6" vertex="1">
          <mxGeometry y="52" width="160" height="26" as="geometry" />
        </mxCell>
        <mxCell id="flcdHSIcotMiygqK4Wnf-16" value="univers_id: bigint" style="text;align=left;verticalAlign=top;spacingLeft=4;spacingRight=4;overflow=hidden;rotatable=0;points=[[0,0.5],[1,0.5]];portConstraint=eastwest;rounded=0;shadow=0;html=0;" vertex="1" parent="zkfFHV4jXpPFQw0GAbJ--6">
          <mxGeometry y="78" width="160" height="26" as="geometry" />
        </mxCell>
        <mxCell id="flcdHSIcotMiygqK4Wnf-18" value="name: varchar" style="text;align=left;verticalAlign=top;spacingLeft=4;spacingRight=4;overflow=hidden;rotatable=0;points=[[0,0.5],[1,0.5]];portConstraint=eastwest;rounded=0;shadow=0;html=0;" vertex="1" parent="zkfFHV4jXpPFQw0GAbJ--6">
          <mxGeometry y="104" width="160" height="26" as="geometry" />
        </mxCell>
        <mxCell id="flcdHSIcotMiygqK4Wnf-17" value="description: text" style="text;align=left;verticalAlign=top;spacingLeft=4;spacingRight=4;overflow=hidden;rotatable=0;points=[[0,0.5],[1,0.5]];portConstraint=eastwest;rounded=0;shadow=0;html=0;" vertex="1" parent="zkfFHV4jXpPFQw0GAbJ--6">
          <mxGeometry y="130" width="160" height="26" as="geometry" />
        </mxCell>
        <mxCell id="flcdHSIcotMiygqK4Wnf-19" value="image: text&#xa;" style="text;align=left;verticalAlign=top;spacingLeft=4;spacingRight=4;overflow=hidden;rotatable=0;points=[[0,0.5],[1,0.5]];portConstraint=eastwest;rounded=0;shadow=0;html=0;" vertex="1" parent="zkfFHV4jXpPFQw0GAbJ--6">
          <mxGeometry y="156" width="160" height="26" as="geometry" />
        </mxCell>
        <mxCell id="zkfFHV4jXpPFQw0GAbJ--9" value="" style="line;html=1;strokeWidth=1;align=left;verticalAlign=middle;spacingTop=-1;spacingLeft=3;spacingRight=3;rotatable=0;labelPosition=right;points=[];portConstraint=eastwest;" parent="zkfFHV4jXpPFQw0GAbJ--6" vertex="1">
          <mxGeometry y="182" width="160" height="8" as="geometry" />
        </mxCell>
        <mxCell id="zkfFHV4jXpPFQw0GAbJ--10" value="create()" style="text;align=left;verticalAlign=top;spacingLeft=4;spacingRight=4;overflow=hidden;rotatable=0;points=[[0,0.5],[1,0.5]];portConstraint=eastwest;fontStyle=0" parent="zkfFHV4jXpPFQw0GAbJ--6" vertex="1">
          <mxGeometry y="190" width="160" height="26" as="geometry" />
        </mxCell>
        <mxCell id="zkfFHV4jXpPFQw0GAbJ--11" value="generateImage()" style="text;align=left;verticalAlign=top;spacingLeft=4;spacingRight=4;overflow=hidden;rotatable=0;points=[[0,0.5],[1,0.5]];portConstraint=eastwest;" parent="zkfFHV4jXpPFQw0GAbJ--6" vertex="1">
          <mxGeometry y="216" width="160" height="26" as="geometry" />
        </mxCell>
        <mxCell id="flcdHSIcotMiygqK4Wnf-35" value="getAllCharacters()" style="text;align=left;verticalAlign=top;spacingLeft=4;spacingRight=4;overflow=hidden;rotatable=0;points=[[0,0.5],[1,0.5]];portConstraint=eastwest;" vertex="1" parent="zkfFHV4jXpPFQw0GAbJ--6">
          <mxGeometry y="242" width="160" height="26" as="geometry" />
        </mxCell>
        <mxCell id="flcdHSIcotMiygqK4Wnf-37" value="editCharacter()" style="text;align=left;verticalAlign=top;spacingLeft=4;spacingRight=4;overflow=hidden;rotatable=0;points=[[0,0.5],[1,0.5]];portConstraint=eastwest;" vertex="1" parent="zkfFHV4jXpPFQw0GAbJ--6">
          <mxGeometry y="268" width="160" height="26" as="geometry" />
        </mxCell>
        <mxCell id="flcdHSIcotMiygqK4Wnf-36" value="deleteCharacter" style="text;align=left;verticalAlign=top;spacingLeft=4;spacingRight=4;overflow=hidden;rotatable=0;points=[[0,0.5],[1,0.5]];portConstraint=eastwest;" vertex="1" parent="zkfFHV4jXpPFQw0GAbJ--6">
          <mxGeometry y="294" width="160" height="26" as="geometry" />
        </mxCell>
        <mxCell id="zkfFHV4jXpPFQw0GAbJ--12" value="" style="endArrow=block;endSize=10;endFill=0;shadow=0;strokeWidth=1;rounded=0;edgeStyle=elbowEdgeStyle;elbow=vertical;" parent="WIyWlLk6GJQsqaUBKTNV-1" source="zkfFHV4jXpPFQw0GAbJ--6" target="zkfFHV4jXpPFQw0GAbJ--0" edge="1">
          <mxGeometry width="160" relative="1" as="geometry">
            <mxPoint x="200" y="203" as="sourcePoint" />
            <mxPoint x="200" y="203" as="targetPoint" />
          </mxGeometry>
        </mxCell>
        <mxCell id="flcdHSIcotMiygqK4Wnf-51" style="edgeStyle=orthogonalEdgeStyle;rounded=0;orthogonalLoop=1;jettySize=auto;html=1;entryX=0.501;entryY=1.033;entryDx=0;entryDy=0;entryPerimeter=0;" edge="1" parent="WIyWlLk6GJQsqaUBKTNV-1" source="zkfFHV4jXpPFQw0GAbJ--13" target="flcdHSIcotMiygqK4Wnf-36">
          <mxGeometry relative="1" as="geometry" />
        </mxCell>
        <mxCell id="zkfFHV4jXpPFQw0GAbJ--13" value="Conversations" style="swimlane;fontStyle=0;align=center;verticalAlign=top;childLayout=stackLayout;horizontal=1;startSize=26;horizontalStack=0;resizeParent=1;resizeLast=0;collapsible=1;marginBottom=0;rounded=0;shadow=0;strokeWidth=1;" parent="WIyWlLk6GJQsqaUBKTNV-1" vertex="1">
          <mxGeometry x="667" y="585" width="160" height="446" as="geometry">
            <mxRectangle x="340" y="380" width="170" height="26" as="alternateBounds" />
          </mxGeometry>
        </mxCell>
        <mxCell id="zkfFHV4jXpPFQw0GAbJ--14" value="id: bigint" style="text;align=left;verticalAlign=top;spacingLeft=4;spacingRight=4;overflow=hidden;rotatable=0;points=[[0,0.5],[1,0.5]];portConstraint=eastwest;" parent="zkfFHV4jXpPFQw0GAbJ--13" vertex="1">
          <mxGeometry y="26" width="160" height="26" as="geometry" />
        </mxCell>
        <mxCell id="flcdHSIcotMiygqK4Wnf-20" value="user_id: bigint" style="text;align=left;verticalAlign=top;spacingLeft=4;spacingRight=4;overflow=hidden;rotatable=0;points=[[0,0.5],[1,0.5]];portConstraint=eastwest;" vertex="1" parent="zkfFHV4jXpPFQw0GAbJ--13">
          <mxGeometry y="52" width="160" height="26" as="geometry" />
        </mxCell>
        <mxCell id="flcdHSIcotMiygqK4Wnf-21" value="name: varchar" style="text;align=left;verticalAlign=top;spacingLeft=4;spacingRight=4;overflow=hidden;rotatable=0;points=[[0,0.5],[1,0.5]];portConstraint=eastwest;" vertex="1" parent="zkfFHV4jXpPFQw0GAbJ--13">
          <mxGeometry y="78" width="160" height="26" as="geometry" />
        </mxCell>
        <mxCell id="flcdHSIcotMiygqK4Wnf-22" value="character_id" style="text;align=left;verticalAlign=top;spacingLeft=4;spacingRight=4;overflow=hidden;rotatable=0;points=[[0,0.5],[1,0.5]];portConstraint=eastwest;" vertex="1" parent="zkfFHV4jXpPFQw0GAbJ--13">
          <mxGeometry y="104" width="160" height="26" as="geometry" />
        </mxCell>
        <mxCell id="zkfFHV4jXpPFQw0GAbJ--15" value="" style="line;html=1;strokeWidth=1;align=left;verticalAlign=middle;spacingTop=-1;spacingLeft=3;spacingRight=3;rotatable=0;labelPosition=right;points=[];portConstraint=eastwest;" parent="zkfFHV4jXpPFQw0GAbJ--13" vertex="1">
          <mxGeometry y="130" width="160" height="8" as="geometry" />
        </mxCell>
        <mxCell id="flcdHSIcotMiygqK4Wnf-39" value="create()" style="text;align=left;verticalAlign=top;spacingLeft=4;spacingRight=4;overflow=hidden;rotatable=0;points=[[0,0.5],[1,0.5]];portConstraint=eastwest;" vertex="1" parent="zkfFHV4jXpPFQw0GAbJ--13">
          <mxGeometry y="138" width="160" height="26" as="geometry" />
        </mxCell>
        <mxCell id="flcdHSIcotMiygqK4Wnf-38" value="deleteConversation()" style="text;align=left;verticalAlign=top;spacingLeft=4;spacingRight=4;overflow=hidden;rotatable=0;points=[[0,0.5],[1,0.5]];portConstraint=eastwest;" vertex="1" parent="zkfFHV4jXpPFQw0GAbJ--13">
          <mxGeometry y="164" width="160" height="26" as="geometry" />
        </mxCell>
        <mxCell id="flcdHSIcotMiygqK4Wnf-40" value="getMessages()" style="text;align=left;verticalAlign=top;spacingLeft=4;spacingRight=4;overflow=hidden;rotatable=0;points=[[0,0.5],[1,0.5]];portConstraint=eastwest;" vertex="1" parent="zkfFHV4jXpPFQw0GAbJ--13">
          <mxGeometry y="190" width="160" height="26" as="geometry" />
        </mxCell>
        <mxCell id="zkfFHV4jXpPFQw0GAbJ--16" value="" style="endArrow=block;endSize=10;endFill=0;shadow=0;strokeWidth=1;rounded=0;edgeStyle=elbowEdgeStyle;elbow=vertical;entryX=0.5;entryY=1;entryDx=0;entryDy=0;" parent="WIyWlLk6GJQsqaUBKTNV-1" source="zkfFHV4jXpPFQw0GAbJ--13" target="flcdHSIcotMiygqK4Wnf-0" edge="1">
          <mxGeometry width="160" relative="1" as="geometry">
            <mxPoint x="210" y="373" as="sourcePoint" />
            <mxPoint x="550" y="460" as="targetPoint" />
          </mxGeometry>
        </mxCell>
        <mxCell id="zkfFHV4jXpPFQw0GAbJ--26" value="" style="endArrow=open;shadow=0;strokeWidth=1;rounded=0;endFill=1;edgeStyle=elbowEdgeStyle;elbow=vertical;" parent="WIyWlLk6GJQsqaUBKTNV-1" source="zkfFHV4jXpPFQw0GAbJ--0" target="zkfFHV4jXpPFQw0GAbJ--17" edge="1">
          <mxGeometry x="0.5" y="41" relative="1" as="geometry">
            <mxPoint x="380" y="192" as="sourcePoint" />
            <mxPoint x="540" y="192" as="targetPoint" />
            <mxPoint x="-40" y="32" as="offset" />
          </mxGeometry>
        </mxCell>
        <mxCell id="zkfFHV4jXpPFQw0GAbJ--27" value="" style="resizable=0;align=left;verticalAlign=bottom;labelBackgroundColor=none;fontSize=12;" parent="zkfFHV4jXpPFQw0GAbJ--26" connectable="0" vertex="1">
          <mxGeometry x="-1" relative="1" as="geometry">
            <mxPoint y="4" as="offset" />
          </mxGeometry>
        </mxCell>
        <mxCell id="flcdHSIcotMiygqK4Wnf-23" style="edgeStyle=orthogonalEdgeStyle;rounded=0;orthogonalLoop=1;jettySize=auto;html=1;entryX=1.025;entryY=0.063;entryDx=0;entryDy=0;entryPerimeter=0;" edge="1" parent="WIyWlLk6GJQsqaUBKTNV-1" source="flcdHSIcotMiygqK4Wnf-0" target="flcdHSIcotMiygqK4Wnf-15">
          <mxGeometry relative="1" as="geometry" />
        </mxCell>
        <mxCell id="flcdHSIcotMiygqK4Wnf-0" value="messages" style="swimlane;fontStyle=0;align=center;verticalAlign=top;childLayout=stackLayout;horizontal=1;startSize=26;horizontalStack=0;resizeParent=1;resizeLast=0;collapsible=1;marginBottom=0;rounded=0;shadow=0;strokeWidth=1;" vertex="1" parent="WIyWlLk6GJQsqaUBKTNV-1">
          <mxGeometry x="667" y="230" width="160" height="182" as="geometry">
            <mxRectangle x="550" y="140" width="160" height="26" as="alternateBounds" />
          </mxGeometry>
        </mxCell>
        <mxCell id="flcdHSIcotMiygqK4Wnf-1" value="id: bigint" style="text;align=left;verticalAlign=top;spacingLeft=4;spacingRight=4;overflow=hidden;rotatable=0;points=[[0,0.5],[1,0.5]];portConstraint=eastwest;" vertex="1" parent="flcdHSIcotMiygqK4Wnf-0">
          <mxGeometry y="26" width="160" height="26" as="geometry" />
        </mxCell>
        <mxCell id="flcdHSIcotMiygqK4Wnf-2" value="user_id: bigint" style="text;align=left;verticalAlign=top;spacingLeft=4;spacingRight=4;overflow=hidden;rotatable=0;points=[[0,0.5],[1,0.5]];portConstraint=eastwest;rounded=0;shadow=0;html=0;" vertex="1" parent="flcdHSIcotMiygqK4Wnf-0">
          <mxGeometry y="52" width="160" height="26" as="geometry" />
        </mxCell>
        <mxCell id="flcdHSIcotMiygqK4Wnf-3" value="conversation_id: bigint" style="text;align=left;verticalAlign=top;spacingLeft=4;spacingRight=4;overflow=hidden;rotatable=0;points=[[0,0.5],[1,0.5]];portConstraint=eastwest;rounded=0;shadow=0;html=0;" vertex="1" parent="flcdHSIcotMiygqK4Wnf-0">
          <mxGeometry y="78" width="160" height="26" as="geometry" />
        </mxCell>
        <mxCell id="flcdHSIcotMiygqK4Wnf-4" value="content: text" style="text;align=left;verticalAlign=top;spacingLeft=4;spacingRight=4;overflow=hidden;rotatable=0;points=[[0,0.5],[1,0.5]];portConstraint=eastwest;rounded=0;shadow=0;html=0;" vertex="1" parent="flcdHSIcotMiygqK4Wnf-0">
          <mxGeometry y="104" width="160" height="26" as="geometry" />
        </mxCell>
        <mxCell id="flcdHSIcotMiygqK4Wnf-6" value="" style="line;html=1;strokeWidth=1;align=left;verticalAlign=middle;spacingTop=-1;spacingLeft=3;spacingRight=3;rotatable=0;labelPosition=right;points=[];portConstraint=eastwest;" vertex="1" parent="flcdHSIcotMiygqK4Wnf-0">
          <mxGeometry y="130" width="160" height="8" as="geometry" />
        </mxCell>
        <mxCell id="flcdHSIcotMiygqK4Wnf-7" value="createMessage()" style="text;align=left;verticalAlign=top;spacingLeft=4;spacingRight=4;overflow=hidden;rotatable=0;points=[[0,0.5],[1,0.5]];portConstraint=eastwest;" vertex="1" parent="flcdHSIcotMiygqK4Wnf-0">
          <mxGeometry y="138" width="160" height="26" as="geometry" />
        </mxCell>
        <mxCell id="flcdHSIcotMiygqK4Wnf-24" value="*" style="resizable=0;align=left;verticalAlign=bottom;labelBackgroundColor=none;fontSize=25;" connectable="0" vertex="1" parent="WIyWlLk6GJQsqaUBKTNV-1">
          <mxGeometry x="270" y="140" as="geometry" />
        </mxCell>
        <mxCell id="flcdHSIcotMiygqK4Wnf-43" value="1" style="resizable=0;align=left;verticalAlign=bottom;labelBackgroundColor=none;fontSize=25;" connectable="0" vertex="1" parent="WIyWlLk6GJQsqaUBKTNV-1">
          <mxGeometry x="470" y="280" as="geometry" />
        </mxCell>
        <mxCell id="flcdHSIcotMiygqK4Wnf-44" value="*" style="resizable=0;align=left;verticalAlign=bottom;labelBackgroundColor=none;fontSize=25;" connectable="0" vertex="1" parent="WIyWlLk6GJQsqaUBKTNV-1">
          <mxGeometry x="430" y="450" as="geometry" />
        </mxCell>
        <mxCell id="flcdHSIcotMiygqK4Wnf-45" value="1" style="resizable=0;align=left;verticalAlign=bottom;labelBackgroundColor=none;fontSize=25;" connectable="0" vertex="1" parent="WIyWlLk6GJQsqaUBKTNV-1">
          <mxGeometry x="460" y="500" as="geometry" />
        </mxCell>
        <mxCell id="flcdHSIcotMiygqK4Wnf-46" value="*" style="resizable=0;align=left;verticalAlign=bottom;labelBackgroundColor=none;fontSize=25;" connectable="0" vertex="1" parent="WIyWlLk6GJQsqaUBKTNV-1">
          <mxGeometry x="140" y="300" as="geometry" />
        </mxCell>
        <mxCell id="flcdHSIcotMiygqK4Wnf-47" value="1" style="resizable=0;align=left;verticalAlign=bottom;labelBackgroundColor=none;fontSize=25;" connectable="0" vertex="1" parent="WIyWlLk6GJQsqaUBKTNV-1">
          <mxGeometry x="210" y="480" as="geometry">
            <mxPoint x="-66" y="-26" as="offset" />
          </mxGeometry>
        </mxCell>
        <mxCell id="flcdHSIcotMiygqK4Wnf-48" value="1" style="resizable=0;align=left;verticalAlign=bottom;labelBackgroundColor=none;fontSize=25;" connectable="0" vertex="1" parent="WIyWlLk6GJQsqaUBKTNV-1">
          <mxGeometry x="720" y="220" as="geometry" />
        </mxCell>
        <mxCell id="flcdHSIcotMiygqK4Wnf-49" value="*" style="resizable=0;align=left;verticalAlign=bottom;labelBackgroundColor=none;fontSize=25;" connectable="0" vertex="1" parent="WIyWlLk6GJQsqaUBKTNV-1">
          <mxGeometry x="170" y="321" as="geometry">
            <mxPoint x="7" y="-1" as="offset" />
          </mxGeometry>
        </mxCell>
        <mxCell id="zkfFHV4jXpPFQw0GAbJ--17" value="universe" style="swimlane;fontStyle=0;align=center;verticalAlign=top;childLayout=stackLayout;horizontal=1;startSize=26;horizontalStack=0;resizeParent=1;resizeLast=0;collapsible=1;marginBottom=0;rounded=0;shadow=0;strokeWidth=1;" parent="WIyWlLk6GJQsqaUBKTNV-1" vertex="1">
          <mxGeometry x="50" y="460" width="160" height="230" as="geometry">
            <mxRectangle x="550" y="140" width="160" height="26" as="alternateBounds" />
          </mxGeometry>
        </mxCell>
        <mxCell id="zkfFHV4jXpPFQw0GAbJ--18" value="id: bigint" style="text;align=left;verticalAlign=top;spacingLeft=4;spacingRight=4;overflow=hidden;rotatable=0;points=[[0,0.5],[1,0.5]];portConstraint=eastwest;" parent="zkfFHV4jXpPFQw0GAbJ--17" vertex="1">
          <mxGeometry y="26" width="160" height="26" as="geometry" />
        </mxCell>
        <mxCell id="zkfFHV4jXpPFQw0GAbJ--19" value="user_id bigint" style="text;align=left;verticalAlign=top;spacingLeft=4;spacingRight=4;overflow=hidden;rotatable=0;points=[[0,0.5],[1,0.5]];portConstraint=eastwest;rounded=0;shadow=0;html=0;" parent="zkfFHV4jXpPFQw0GAbJ--17" vertex="1">
          <mxGeometry y="52" width="160" height="26" as="geometry" />
        </mxCell>
        <mxCell id="zkfFHV4jXpPFQw0GAbJ--20" value="name: varchar" style="text;align=left;verticalAlign=top;spacingLeft=4;spacingRight=4;overflow=hidden;rotatable=0;points=[[0,0.5],[1,0.5]];portConstraint=eastwest;rounded=0;shadow=0;html=0;" parent="zkfFHV4jXpPFQw0GAbJ--17" vertex="1">
          <mxGeometry y="78" width="160" height="26" as="geometry" />
        </mxCell>
        <mxCell id="zkfFHV4jXpPFQw0GAbJ--23" value="" style="line;html=1;strokeWidth=1;align=left;verticalAlign=middle;spacingTop=-1;spacingLeft=3;spacingRight=3;rotatable=0;labelPosition=right;points=[];portConstraint=eastwest;" parent="zkfFHV4jXpPFQw0GAbJ--17" vertex="1">
          <mxGeometry y="104" width="160" height="8" as="geometry" />
        </mxCell>
        <mxCell id="zkfFHV4jXpPFQw0GAbJ--24" value="create()" style="text;align=left;verticalAlign=top;spacingLeft=4;spacingRight=4;overflow=hidden;rotatable=0;points=[[0,0.5],[1,0.5]];portConstraint=eastwest;" parent="zkfFHV4jXpPFQw0GAbJ--17" vertex="1">
          <mxGeometry y="112" width="160" height="26" as="geometry" />
        </mxCell>
        <mxCell id="zkfFHV4jXpPFQw0GAbJ--25" value="getAllUnivers()" style="text;align=left;verticalAlign=top;spacingLeft=4;spacingRight=4;overflow=hidden;rotatable=0;points=[[0,0.5],[1,0.5]];portConstraint=eastwest;" parent="zkfFHV4jXpPFQw0GAbJ--17" vertex="1">
          <mxGeometry y="138" width="160" height="26" as="geometry" />
        </mxCell>
        <mxCell id="flcdHSIcotMiygqK4Wnf-41" value="updateName()" style="text;align=left;verticalAlign=top;spacingLeft=4;spacingRight=4;overflow=hidden;rotatable=0;points=[[0,0.5],[1,0.5]];portConstraint=eastwest;" vertex="1" parent="zkfFHV4jXpPFQw0GAbJ--17">
          <mxGeometry y="164" width="160" height="26" as="geometry" />
        </mxCell>
        <mxCell id="flcdHSIcotMiygqK4Wnf-42" value="deleteUniverse()" style="text;align=left;verticalAlign=top;spacingLeft=4;spacingRight=4;overflow=hidden;rotatable=0;points=[[0,0.5],[1,0.5]];portConstraint=eastwest;" vertex="1" parent="zkfFHV4jXpPFQw0GAbJ--17">
          <mxGeometry y="190" width="160" height="30" as="geometry" />
        </mxCell>
        <mxCell id="flcdHSIcotMiygqK4Wnf-52" value="*" style="resizable=0;align=left;verticalAlign=bottom;labelBackgroundColor=none;fontSize=25;" connectable="0" vertex="1" parent="WIyWlLk6GJQsqaUBKTNV-1">
          <mxGeometry x="460" y="670" as="geometry">
            <mxPoint y="-4" as="offset" />
          </mxGeometry>
        </mxCell>
        <mxCell id="flcdHSIcotMiygqK4Wnf-53" value="1" style="resizable=0;align=left;verticalAlign=bottom;labelBackgroundColor=none;fontSize=25;" connectable="0" vertex="1" parent="WIyWlLk6GJQsqaUBKTNV-1">
          <mxGeometry x="520" y="670" as="geometry">
            <mxPoint x="103" y="124" as="offset" />
          </mxGeometry>
        </mxCell>
        <mxCell id="flcdHSIcotMiygqK4Wnf-54" value="1" style="resizable=0;align=left;verticalAlign=bottom;labelBackgroundColor=none;fontSize=25;" connectable="0" vertex="1" parent="WIyWlLk6GJQsqaUBKTNV-1">
          <mxGeometry x="280" y="340" as="geometry">
            <mxPoint x="103" y="124" as="offset" />
          </mxGeometry>
        </mxCell>
        <mxCell id="flcdHSIcotMiygqK4Wnf-55" value="*" style="resizable=0;align=left;verticalAlign=bottom;labelBackgroundColor=none;fontSize=25;" connectable="0" vertex="1" parent="WIyWlLk6GJQsqaUBKTNV-1">
          <mxGeometry x="30" y="620" as="geometry">
            <mxPoint x="103" y="124" as="offset" />
          </mxGeometry>
        </mxCell>
      </root>
    </mxGraphModel>
  </diagram>
  <diagram id="BQ897EU3vYcvvasz0PcX" name="sequences">
    <mxGraphModel dx="1590" dy="918" grid="1" gridSize="10" guides="1" tooltips="1" connect="1" arrows="1" fold="1" page="1" pageScale="1" pageWidth="827" pageHeight="1169" math="0" shadow="0">
      <root>
        <mxCell id="0" />
        <mxCell id="1" parent="0" />
        <mxCell id="_tK9Fu7Q97Le-i4UHT-a-47" value="Utilisateur&lt;br&gt;" style="text;html=1;align=center;verticalAlign=middle;resizable=0;points=[];autosize=1;strokeColor=none;fillColor=none;" vertex="1" parent="1">
          <mxGeometry x="90" y="20" width="80" height="30" as="geometry" />
        </mxCell>
        <mxCell id="_tK9Fu7Q97Le-i4UHT-a-48" value="Système" style="text;html=1;align=center;verticalAlign=middle;resizable=0;points=[];autosize=1;strokeColor=none;fillColor=none;" vertex="1" parent="1">
          <mxGeometry x="265" y="20" width="70" height="30" as="geometry" />
        </mxCell>
        <mxCell id="_tK9Fu7Q97Le-i4UHT-a-49" value="openAI" style="text;html=1;align=center;verticalAlign=middle;resizable=0;points=[];autosize=1;strokeColor=none;fillColor=none;" vertex="1" parent="1">
          <mxGeometry x="465" y="20" width="60" height="30" as="geometry" />
        </mxCell>
        <mxCell id="_tK9Fu7Q97Le-i4UHT-a-50" value="" style="endArrow=none;html=1;rounded=0;entryX=0.505;entryY=0.968;entryDx=0;entryDy=0;entryPerimeter=0;" edge="1" parent="1" target="_tK9Fu7Q97Le-i4UHT-a-47">
          <mxGeometry width="50" height="50" relative="1" as="geometry">
            <mxPoint x="130" y="850" as="sourcePoint" />
            <mxPoint x="290" y="130" as="targetPoint" />
          </mxGeometry>
        </mxCell>
        <mxCell id="_tK9Fu7Q97Le-i4UHT-a-51" value="Creation du compte" style="text;html=1;align=center;verticalAlign=middle;resizable=0;points=[];autosize=1;strokeColor=none;fillColor=none;" vertex="1" parent="1">
          <mxGeometry x="135" y="58" width="130" height="30" as="geometry" />
        </mxCell>
        <mxCell id="_tK9Fu7Q97Le-i4UHT-a-52" value="" style="endArrow=classic;html=1;rounded=0;" edge="1" parent="1">
          <mxGeometry width="50" height="50" relative="1" as="geometry">
            <mxPoint x="130" y="90" as="sourcePoint" />
            <mxPoint x="290" y="90" as="targetPoint" />
          </mxGeometry>
        </mxCell>
        <mxCell id="_tK9Fu7Q97Le-i4UHT-a-53" value="Confirmation" style="text;html=1;align=center;verticalAlign=middle;resizable=0;points=[];autosize=1;strokeColor=none;fillColor=none;" vertex="1" parent="1">
          <mxGeometry x="155" y="100" width="90" height="30" as="geometry" />
        </mxCell>
        <mxCell id="_tK9Fu7Q97Le-i4UHT-a-54" value="" style="endArrow=classic;html=1;rounded=0;" edge="1" parent="1">
          <mxGeometry width="50" height="50" relative="1" as="geometry">
            <mxPoint x="285" y="140" as="sourcePoint" />
            <mxPoint x="130" y="140" as="targetPoint" />
          </mxGeometry>
        </mxCell>
        <mxCell id="_tK9Fu7Q97Le-i4UHT-a-55" value="login avec email et mdp" style="text;html=1;align=center;verticalAlign=middle;resizable=0;points=[];autosize=1;strokeColor=none;fillColor=none;" vertex="1" parent="1">
          <mxGeometry x="135" y="150" width="150" height="30" as="geometry" />
        </mxCell>
        <mxCell id="_tK9Fu7Q97Le-i4UHT-a-56" value="" style="endArrow=classic;html=1;rounded=0;" edge="1" parent="1">
          <mxGeometry width="50" height="50" relative="1" as="geometry">
            <mxPoint x="130" y="190" as="sourcePoint" />
            <mxPoint x="290" y="190" as="targetPoint" />
          </mxGeometry>
        </mxCell>
        <mxCell id="_tK9Fu7Q97Le-i4UHT-a-57" value="generation du token" style="text;html=1;align=center;verticalAlign=middle;resizable=0;points=[];autosize=1;strokeColor=none;fillColor=none;" vertex="1" parent="1">
          <mxGeometry x="145" y="200" width="130" height="30" as="geometry" />
        </mxCell>
        <mxCell id="_tK9Fu7Q97Le-i4UHT-a-58" value="" style="endArrow=classic;html=1;rounded=0;" edge="1" parent="1">
          <mxGeometry width="50" height="50" relative="1" as="geometry">
            <mxPoint x="285" y="240" as="sourcePoint" />
            <mxPoint x="130" y="240" as="targetPoint" />
          </mxGeometry>
        </mxCell>
        <mxCell id="_tK9Fu7Q97Le-i4UHT-a-60" value="creation d&#39;un univers" style="text;html=1;align=center;verticalAlign=middle;resizable=0;points=[];autosize=1;strokeColor=none;fillColor=none;" vertex="1" parent="1">
          <mxGeometry x="145" y="250" width="130" height="30" as="geometry" />
        </mxCell>
        <mxCell id="_tK9Fu7Q97Le-i4UHT-a-61" value="" style="endArrow=classic;html=1;rounded=0;" edge="1" parent="1">
          <mxGeometry width="50" height="50" relative="1" as="geometry">
            <mxPoint x="130" y="290" as="sourcePoint" />
            <mxPoint x="290" y="290" as="targetPoint" />
          </mxGeometry>
        </mxCell>
        <mxCell id="_tK9Fu7Q97Le-i4UHT-a-62" value="Confirmation" style="text;html=1;align=center;verticalAlign=middle;resizable=0;points=[];autosize=1;strokeColor=none;fillColor=none;" vertex="1" parent="1">
          <mxGeometry x="165" y="300" width="90" height="30" as="geometry" />
        </mxCell>
        <mxCell id="_tK9Fu7Q97Le-i4UHT-a-63" value="" style="endArrow=classic;html=1;rounded=0;" edge="1" parent="1">
          <mxGeometry width="50" height="50" relative="1" as="geometry">
            <mxPoint x="300" y="340" as="sourcePoint" />
            <mxPoint x="130" y="340" as="targetPoint" />
          </mxGeometry>
        </mxCell>
        <mxCell id="_tK9Fu7Q97Le-i4UHT-a-64" value="creation d&#39;un personnage&amp;nbsp;" style="text;html=1;align=center;verticalAlign=middle;resizable=0;points=[];autosize=1;strokeColor=none;fillColor=none;" vertex="1" parent="1">
          <mxGeometry x="130" y="350" width="160" height="30" as="geometry" />
        </mxCell>
        <mxCell id="_tK9Fu7Q97Le-i4UHT-a-65" value="" style="endArrow=classic;html=1;rounded=0;" edge="1" parent="1">
          <mxGeometry width="50" height="50" relative="1" as="geometry">
            <mxPoint x="130" y="390" as="sourcePoint" />
            <mxPoint x="300" y="390" as="targetPoint" />
          </mxGeometry>
        </mxCell>
        <mxCell id="_tK9Fu7Q97Le-i4UHT-a-66" value="" style="endArrow=none;html=1;rounded=0;entryX=0.522;entryY=1.165;entryDx=0;entryDy=0;entryPerimeter=0;" edge="1" parent="1" target="_tK9Fu7Q97Le-i4UHT-a-48">
          <mxGeometry width="50" height="50" relative="1" as="geometry">
            <mxPoint x="302" y="850" as="sourcePoint" />
            <mxPoint x="290" y="160" as="targetPoint" />
          </mxGeometry>
        </mxCell>
        <mxCell id="_tK9Fu7Q97Le-i4UHT-a-67" value="" style="endArrow=none;html=1;rounded=0;entryX=0.51;entryY=0.993;entryDx=0;entryDy=0;entryPerimeter=0;" edge="1" parent="1" target="_tK9Fu7Q97Le-i4UHT-a-49">
          <mxGeometry width="50" height="50" relative="1" as="geometry">
            <mxPoint x="500" y="750" as="sourcePoint" />
            <mxPoint x="290" y="100" as="targetPoint" />
          </mxGeometry>
        </mxCell>
        <mxCell id="_tK9Fu7Q97Le-i4UHT-a-68" value="Confirmation" style="text;html=1;align=center;verticalAlign=middle;resizable=0;points=[];autosize=1;strokeColor=none;fillColor=none;" vertex="1" parent="1">
          <mxGeometry x="170" y="410" width="90" height="30" as="geometry" />
        </mxCell>
        <mxCell id="_tK9Fu7Q97Le-i4UHT-a-69" value="Creation de la description et de&amp;nbsp;&lt;br&gt;l&#39;image" style="text;html=1;align=center;verticalAlign=middle;resizable=0;points=[];autosize=1;strokeColor=none;fillColor=none;" vertex="1" parent="1">
          <mxGeometry x="300" y="405" width="190" height="40" as="geometry" />
        </mxCell>
        <mxCell id="_tK9Fu7Q97Le-i4UHT-a-70" value="" style="endArrow=classic;html=1;rounded=0;" edge="1" parent="1">
          <mxGeometry width="50" height="50" relative="1" as="geometry">
            <mxPoint x="310" y="390" as="sourcePoint" />
            <mxPoint x="480" y="390" as="targetPoint" />
          </mxGeometry>
        </mxCell>
        <mxCell id="_tK9Fu7Q97Le-i4UHT-a-71" value="Envoi des informations" style="text;html=1;align=center;verticalAlign=middle;resizable=0;points=[];autosize=1;strokeColor=none;fillColor=none;" vertex="1" parent="1">
          <mxGeometry x="325" y="350" width="140" height="30" as="geometry" />
        </mxCell>
        <mxCell id="_tK9Fu7Q97Le-i4UHT-a-72" value="" style="endArrow=classic;html=1;rounded=0;" edge="1" parent="1">
          <mxGeometry width="50" height="50" relative="1" as="geometry">
            <mxPoint x="480" y="460" as="sourcePoint" />
            <mxPoint x="310" y="460" as="targetPoint" />
          </mxGeometry>
        </mxCell>
        <mxCell id="_tK9Fu7Q97Le-i4UHT-a-73" value="creation d&#39;une conversation&amp;nbsp;" style="text;html=1;align=center;verticalAlign=middle;resizable=0;points=[];autosize=1;strokeColor=none;fillColor=none;" vertex="1" parent="1">
          <mxGeometry x="130" y="460" width="170" height="30" as="geometry" />
        </mxCell>
        <mxCell id="_tK9Fu7Q97Le-i4UHT-a-74" value="Confirmation" style="text;html=1;align=center;verticalAlign=middle;resizable=0;points=[];autosize=1;strokeColor=none;fillColor=none;" vertex="1" parent="1">
          <mxGeometry x="175" y="500" width="90" height="30" as="geometry" />
        </mxCell>
        <mxCell id="_tK9Fu7Q97Le-i4UHT-a-75" value="" style="endArrow=classic;html=1;rounded=0;" edge="1" parent="1">
          <mxGeometry width="50" height="50" relative="1" as="geometry">
            <mxPoint x="300" y="460" as="sourcePoint" />
            <mxPoint x="130" y="460" as="targetPoint" />
          </mxGeometry>
        </mxCell>
        <mxCell id="_tK9Fu7Q97Le-i4UHT-a-76" value="" style="endArrow=classic;html=1;rounded=0;" edge="1" parent="1">
          <mxGeometry width="50" height="50" relative="1" as="geometry">
            <mxPoint x="130" y="500" as="sourcePoint" />
            <mxPoint x="300" y="500" as="targetPoint" />
          </mxGeometry>
        </mxCell>
        <mxCell id="_tK9Fu7Q97Le-i4UHT-a-78" value="" style="endArrow=classic;html=1;rounded=0;" edge="1" parent="1">
          <mxGeometry width="50" height="50" relative="1" as="geometry">
            <mxPoint x="300" y="540" as="sourcePoint" />
            <mxPoint x="130" y="540" as="targetPoint" />
          </mxGeometry>
        </mxCell>
        <mxCell id="_tK9Fu7Q97Le-i4UHT-a-79" value="creation d&#39;une message" style="text;html=1;align=center;verticalAlign=middle;resizable=0;points=[];autosize=1;strokeColor=none;fillColor=none;" vertex="1" parent="1">
          <mxGeometry x="140" y="554" width="150" height="30" as="geometry" />
        </mxCell>
        <mxCell id="_tK9Fu7Q97Le-i4UHT-a-80" value="" style="endArrow=classic;html=1;rounded=0;" edge="1" parent="1">
          <mxGeometry width="50" height="50" relative="1" as="geometry">
            <mxPoint x="130" y="590" as="sourcePoint" />
            <mxPoint x="300" y="590" as="targetPoint" />
          </mxGeometry>
        </mxCell>
        <mxCell id="_tK9Fu7Q97Le-i4UHT-a-81" value="envoi des informations &lt;br&gt;du message" style="text;html=1;align=center;verticalAlign=middle;resizable=0;points=[];autosize=1;strokeColor=none;fillColor=none;" vertex="1" parent="1">
          <mxGeometry x="335" y="549" width="140" height="40" as="geometry" />
        </mxCell>
        <mxCell id="_tK9Fu7Q97Le-i4UHT-a-82" value="" style="endArrow=classic;html=1;rounded=0;" edge="1" parent="1">
          <mxGeometry width="50" height="50" relative="1" as="geometry">
            <mxPoint x="305" y="600" as="sourcePoint" />
            <mxPoint x="475" y="600" as="targetPoint" />
          </mxGeometry>
        </mxCell>
        <mxCell id="_tK9Fu7Q97Le-i4UHT-a-83" value="" style="endArrow=classic;html=1;rounded=0;" edge="1" parent="1">
          <mxGeometry width="50" height="50" relative="1" as="geometry">
            <mxPoint x="480" y="680" as="sourcePoint" />
            <mxPoint x="310" y="680" as="targetPoint" />
          </mxGeometry>
        </mxCell>
        <mxCell id="_tK9Fu7Q97Le-i4UHT-a-84" value="creation de la réponse" style="text;html=1;align=center;verticalAlign=middle;resizable=0;points=[];autosize=1;strokeColor=none;fillColor=none;" vertex="1" parent="1">
          <mxGeometry x="335" y="625" width="140" height="30" as="geometry" />
        </mxCell>
      </root>
    </mxGraphModel>
  </diagram>
  <diagram id="KVAl-e5kIgyq2a2Ny_PY" name="use case">
    <mxGraphModel dx="1363" dy="787" grid="1" gridSize="10" guides="1" tooltips="1" connect="1" arrows="1" fold="1" page="1" pageScale="1" pageWidth="827" pageHeight="1169" math="0" shadow="0">
      <root>
        <mxCell id="0" />
        <mxCell id="1" parent="0" />
        <mxCell id="qCMrdlePpMyqPLBMetHx-1" value="" style="rounded=1;whiteSpace=wrap;html=1;fontSize=20;" vertex="1" parent="1">
          <mxGeometry x="240" y="150" width="440" height="821" as="geometry" />
        </mxCell>
        <mxCell id="qCMrdlePpMyqPLBMetHx-2" style="edgeStyle=orthogonalEdgeStyle;rounded=0;orthogonalLoop=1;jettySize=auto;html=1;entryX=1;entryY=0.5;entryDx=0;entryDy=0;" edge="1" parent="1" source="qCMrdlePpMyqPLBMetHx-8" target="qCMrdlePpMyqPLBMetHx-9">
          <mxGeometry relative="1" as="geometry">
            <Array as="points">
              <mxPoint x="795" y="99" />
            </Array>
          </mxGeometry>
        </mxCell>
        <mxCell id="qCMrdlePpMyqPLBMetHx-3" style="edgeStyle=orthogonalEdgeStyle;rounded=0;orthogonalLoop=1;jettySize=auto;html=1;entryX=1;entryY=0.5;entryDx=0;entryDy=0;" edge="1" parent="1" source="qCMrdlePpMyqPLBMetHx-8" target="qCMrdlePpMyqPLBMetHx-10">
          <mxGeometry relative="1" as="geometry">
            <Array as="points">
              <mxPoint x="795" y="189" />
            </Array>
          </mxGeometry>
        </mxCell>
        <mxCell id="qCMrdlePpMyqPLBMetHx-4" style="edgeStyle=orthogonalEdgeStyle;rounded=0;orthogonalLoop=1;jettySize=auto;html=1;entryX=1;entryY=0.5;entryDx=0;entryDy=0;" edge="1" parent="1" source="qCMrdlePpMyqPLBMetHx-8" target="qCMrdlePpMyqPLBMetHx-11">
          <mxGeometry relative="1" as="geometry">
            <Array as="points">
              <mxPoint x="795" y="269" />
            </Array>
          </mxGeometry>
        </mxCell>
        <mxCell id="qCMrdlePpMyqPLBMetHx-5" style="edgeStyle=orthogonalEdgeStyle;rounded=0;orthogonalLoop=1;jettySize=auto;html=1;entryX=1;entryY=0.5;entryDx=0;entryDy=0;" edge="1" parent="1" source="qCMrdlePpMyqPLBMetHx-8" target="qCMrdlePpMyqPLBMetHx-12">
          <mxGeometry relative="1" as="geometry" />
        </mxCell>
        <mxCell id="qCMrdlePpMyqPLBMetHx-6" style="edgeStyle=orthogonalEdgeStyle;rounded=0;orthogonalLoop=1;jettySize=auto;html=1;entryX=1;entryY=0.5;entryDx=0;entryDy=0;" edge="1" parent="1" source="qCMrdlePpMyqPLBMetHx-8" target="qCMrdlePpMyqPLBMetHx-13">
          <mxGeometry relative="1" as="geometry" />
        </mxCell>
        <mxCell id="qCMrdlePpMyqPLBMetHx-7" style="edgeStyle=orthogonalEdgeStyle;rounded=0;orthogonalLoop=1;jettySize=auto;html=1;entryX=1;entryY=0.5;entryDx=0;entryDy=0;" edge="1" parent="1" source="qCMrdlePpMyqPLBMetHx-8" target="qCMrdlePpMyqPLBMetHx-14">
          <mxGeometry relative="1" as="geometry" />
        </mxCell>
        <mxCell id="qCMrdlePpMyqPLBMetHx-8" value="User" style="shape=umlActor;verticalLabelPosition=bottom;verticalAlign=top;html=1;outlineConnect=0;fontSize=20;" vertex="1" parent="1">
          <mxGeometry x="780" y="354" width="30" height="60" as="geometry" />
        </mxCell>
        <mxCell id="qCMrdlePpMyqPLBMetHx-9" value="Créer un compte" style="rounded=0;whiteSpace=wrap;html=1;fontSize=20;" vertex="1" parent="1">
          <mxGeometry x="290" y="69" width="340" height="60" as="geometry" />
        </mxCell>
        <mxCell id="qCMrdlePpMyqPLBMetHx-10" value="Se connecter / déconnecter" style="rounded=0;whiteSpace=wrap;html=1;fontSize=20;" vertex="1" parent="1">
          <mxGeometry x="290" y="159" width="340" height="60" as="geometry" />
        </mxCell>
        <mxCell id="qCMrdlePpMyqPLBMetHx-11" value="Ajouter un univers" style="rounded=0;whiteSpace=wrap;html=1;fontSize=20;" vertex="1" parent="1">
          <mxGeometry x="290" y="239" width="340" height="60" as="geometry" />
        </mxCell>
        <mxCell id="qCMrdlePpMyqPLBMetHx-12" value="CRUD personnage" style="rounded=0;whiteSpace=wrap;html=1;fontSize=20;" vertex="1" parent="1">
          <mxGeometry x="290" y="319" width="340" height="60" as="geometry" />
        </mxCell>
        <mxCell id="qCMrdlePpMyqPLBMetHx-13" value="CRUD conversation" style="rounded=0;whiteSpace=wrap;html=1;fontSize=20;" vertex="1" parent="1">
          <mxGeometry x="290" y="540" width="340" height="60" as="geometry" />
        </mxCell>
        <mxCell id="qCMrdlePpMyqPLBMetHx-14" value="CRUD un message" style="rounded=0;whiteSpace=wrap;html=1;fontSize=20;" vertex="1" parent="1">
          <mxGeometry x="290" y="640" width="340" height="60" as="geometry" />
        </mxCell>
        <mxCell id="qCMrdlePpMyqPLBMetHx-15" value="Répondre à la conversation" style="rounded=0;whiteSpace=wrap;html=1;fontSize=20;" vertex="1" parent="1">
          <mxGeometry x="290" y="750" width="340" height="60" as="geometry" />
        </mxCell>
        <mxCell id="qCMrdlePpMyqPLBMetHx-16" style="edgeStyle=orthogonalEdgeStyle;rounded=0;orthogonalLoop=1;jettySize=auto;html=1;entryX=0;entryY=0.5;entryDx=0;entryDy=0;" edge="1" parent="1" target="qCMrdlePpMyqPLBMetHx-15">
          <mxGeometry relative="1" as="geometry">
            <mxPoint x="105" y="410" as="sourcePoint" />
            <Array as="points">
              <mxPoint x="105" y="590" />
              <mxPoint x="290" y="590" />
            </Array>
            <mxPoint x="105" y="770" as="targetPoint" />
          </mxGeometry>
        </mxCell>
        <mxCell id="qCMrdlePpMyqPLBMetHx-18" style="edgeStyle=orthogonalEdgeStyle;rounded=0;orthogonalLoop=1;jettySize=auto;html=1;entryX=0;entryY=0.5;entryDx=0;entryDy=0;" edge="1" parent="1" source="qCMrdlePpMyqPLBMetHx-17" target="qCMrdlePpMyqPLBMetHx-19">
          <mxGeometry relative="1" as="geometry" />
        </mxCell>
        <mxCell id="qCMrdlePpMyqPLBMetHx-17" value="openApi" style="shape=umlActor;verticalLabelPosition=bottom;verticalAlign=top;html=1;outlineConnect=0;fontSize=20;" vertex="1" parent="1">
          <mxGeometry x="90" y="319" width="30" height="60" as="geometry" />
        </mxCell>
        <mxCell id="qCMrdlePpMyqPLBMetHx-19" value="creation description et&amp;nbsp;&lt;br&gt;image" style="rounded=0;whiteSpace=wrap;html=1;fontSize=20;" vertex="1" parent="1">
          <mxGeometry x="290" y="430" width="340" height="60" as="geometry" />
        </mxCell>
      </root>
    </mxGraphModel>
  </diagram>
  <diagram id="V3B4HiMeVhT0pefeV-oH" name="etat">
    <mxGraphModel dx="5597" dy="3924" grid="1" gridSize="10" guides="1" tooltips="1" connect="1" arrows="1" fold="1" page="1" pageScale="1" pageWidth="827" pageHeight="1169" math="0" shadow="0">
      <root>
        <mxCell id="0" />
        <mxCell id="1" parent="0" />
        <mxCell id="7QJD5H1uCndJbY1FMB_5-1" style="edgeStyle=orthogonalEdgeStyle;rounded=0;orthogonalLoop=1;jettySize=auto;html=1;entryX=0;entryY=0.5;entryDx=0;entryDy=0;entryPerimeter=0;" edge="1" parent="1" source="7QJD5H1uCndJbY1FMB_5-2" target="7QJD5H1uCndJbY1FMB_5-50">
          <mxGeometry relative="1" as="geometry" />
        </mxCell>
        <mxCell id="7QJD5H1uCndJbY1FMB_5-2" value="Début" style="strokeWidth=2;html=1;shape=mxgraph.flowchart.start_2;whiteSpace=wrap;" vertex="1" parent="1">
          <mxGeometry x="-310" y="10" width="100" height="100" as="geometry" />
        </mxCell>
        <mxCell id="7QJD5H1uCndJbY1FMB_5-3" value="Sortie" style="verticalLabelPosition=bottom;verticalAlign=top;html=1;shape=mxgraph.flowchart.or;" vertex="1" parent="1">
          <mxGeometry x="-70" y="545" width="70" height="70" as="geometry" />
        </mxCell>
        <mxCell id="7QJD5H1uCndJbY1FMB_5-4" style="edgeStyle=orthogonalEdgeStyle;rounded=0;orthogonalLoop=1;jettySize=auto;html=1;entryX=0.5;entryY=0;entryDx=0;entryDy=0;entryPerimeter=0;" edge="1" parent="1" source="7QJD5H1uCndJbY1FMB_5-5" target="7QJD5H1uCndJbY1FMB_5-14">
          <mxGeometry relative="1" as="geometry" />
        </mxCell>
        <mxCell id="7QJD5H1uCndJbY1FMB_5-5" value="Programme principal" style="rounded=1;whiteSpace=wrap;html=1;absoluteArcSize=1;arcSize=14;strokeWidth=2;" vertex="1" parent="1">
          <mxGeometry x="85" y="373.5" width="210" height="80" as="geometry" />
        </mxCell>
        <mxCell id="7QJD5H1uCndJbY1FMB_5-6" style="edgeStyle=orthogonalEdgeStyle;rounded=0;orthogonalLoop=1;jettySize=auto;html=1;" edge="1" parent="1" source="7QJD5H1uCndJbY1FMB_5-8" target="7QJD5H1uCndJbY1FMB_5-5">
          <mxGeometry relative="1" as="geometry">
            <Array as="points">
              <mxPoint x="223" y="340" />
              <mxPoint x="223" y="340" />
            </Array>
          </mxGeometry>
        </mxCell>
        <mxCell id="7QJD5H1uCndJbY1FMB_5-7" style="edgeStyle=orthogonalEdgeStyle;rounded=0;orthogonalLoop=1;jettySize=auto;html=1;entryX=1;entryY=0.3;entryDx=0;entryDy=0;fontSize=22;" edge="1" parent="1" source="7QJD5H1uCndJbY1FMB_5-8" target="7QJD5H1uCndJbY1FMB_5-62">
          <mxGeometry relative="1" as="geometry">
            <Array as="points">
              <mxPoint x="330" y="220" />
              <mxPoint x="330" y="40" />
            </Array>
          </mxGeometry>
        </mxCell>
        <mxCell id="7QJD5H1uCndJbY1FMB_5-8" value="Identifcation valide" style="strokeWidth=2;html=1;shape=mxgraph.flowchart.decision;whiteSpace=wrap;" vertex="1" parent="1">
          <mxGeometry x="172.5" y="170" width="100" height="100" as="geometry" />
        </mxCell>
        <mxCell id="7QJD5H1uCndJbY1FMB_5-9" value="Erreur log" style="text;html=1;strokeColor=none;fillColor=none;align=center;verticalAlign=middle;whiteSpace=wrap;rounded=0;" vertex="1" parent="1">
          <mxGeometry x="340" y="160" width="60" height="30" as="geometry" />
        </mxCell>
        <mxCell id="7QJD5H1uCndJbY1FMB_5-10" value="Oui" style="text;html=1;strokeColor=none;fillColor=none;align=center;verticalAlign=middle;whiteSpace=wrap;rounded=0;" vertex="1" parent="1">
          <mxGeometry x="160" y="293.5" width="60" height="30" as="geometry" />
        </mxCell>
        <mxCell id="7QJD5H1uCndJbY1FMB_5-11" style="edgeStyle=orthogonalEdgeStyle;rounded=0;orthogonalLoop=1;jettySize=auto;html=1;entryX=0.5;entryY=0;entryDx=0;entryDy=0;" edge="1" parent="1" source="7QJD5H1uCndJbY1FMB_5-14" target="7QJD5H1uCndJbY1FMB_5-64">
          <mxGeometry relative="1" as="geometry">
            <mxPoint x="190" y="690" as="targetPoint" />
          </mxGeometry>
        </mxCell>
        <mxCell id="7QJD5H1uCndJbY1FMB_5-12" style="edgeStyle=orthogonalEdgeStyle;rounded=0;orthogonalLoop=1;jettySize=auto;html=1;entryX=0;entryY=0.5;entryDx=0;entryDy=0;" edge="1" parent="1" source="7QJD5H1uCndJbY1FMB_5-14" target="7QJD5H1uCndJbY1FMB_5-63">
          <mxGeometry relative="1" as="geometry">
            <mxPoint x="390" y="580" as="targetPoint" />
          </mxGeometry>
        </mxCell>
        <mxCell id="7QJD5H1uCndJbY1FMB_5-13" style="edgeStyle=orthogonalEdgeStyle;rounded=0;orthogonalLoop=1;jettySize=auto;html=1;entryX=1;entryY=0.5;entryDx=0;entryDy=0;entryPerimeter=0;" edge="1" parent="1" source="7QJD5H1uCndJbY1FMB_5-14" target="7QJD5H1uCndJbY1FMB_5-3">
          <mxGeometry relative="1" as="geometry" />
        </mxCell>
        <mxCell id="7QJD5H1uCndJbY1FMB_5-14" value="Choix fonctionnalité" style="strokeWidth=2;html=1;shape=mxgraph.flowchart.decision;whiteSpace=wrap;" vertex="1" parent="1">
          <mxGeometry x="140" y="530" width="100" height="100" as="geometry" />
        </mxCell>
        <mxCell id="7QJD5H1uCndJbY1FMB_5-15" style="edgeStyle=orthogonalEdgeStyle;rounded=0;orthogonalLoop=1;jettySize=auto;html=1;" edge="1" parent="1" target="7QJD5H1uCndJbY1FMB_5-19">
          <mxGeometry relative="1" as="geometry">
            <mxPoint x="750" y="580" as="targetPoint" />
            <mxPoint x="650" y="580" as="sourcePoint" />
          </mxGeometry>
        </mxCell>
        <mxCell id="7QJD5H1uCndJbY1FMB_5-16" style="edgeStyle=orthogonalEdgeStyle;rounded=0;orthogonalLoop=1;jettySize=auto;html=1;exitX=0.5;exitY=1;exitDx=0;exitDy=0;" edge="1" parent="1" source="7QJD5H1uCndJbY1FMB_5-64" target="7QJD5H1uCndJbY1FMB_5-34">
          <mxGeometry relative="1" as="geometry">
            <mxPoint x="190" y="790" as="sourcePoint" />
          </mxGeometry>
        </mxCell>
        <mxCell id="7QJD5H1uCndJbY1FMB_5-17" style="edgeStyle=orthogonalEdgeStyle;rounded=0;orthogonalLoop=1;jettySize=auto;html=1;" edge="1" parent="1" source="7QJD5H1uCndJbY1FMB_5-19" target="7QJD5H1uCndJbY1FMB_5-23">
          <mxGeometry relative="1" as="geometry">
            <mxPoint x="760" y="720" as="targetPoint" />
          </mxGeometry>
        </mxCell>
        <mxCell id="7QJD5H1uCndJbY1FMB_5-18" style="edgeStyle=orthogonalEdgeStyle;rounded=0;orthogonalLoop=1;jettySize=auto;html=1;" edge="1" parent="1" source="7QJD5H1uCndJbY1FMB_5-19" target="7QJD5H1uCndJbY1FMB_5-21">
          <mxGeometry relative="1" as="geometry">
            <mxPoint x="920" y="580" as="targetPoint" />
          </mxGeometry>
        </mxCell>
        <mxCell id="7QJD5H1uCndJbY1FMB_5-19" value="Choix univers" style="strokeWidth=2;html=1;shape=mxgraph.flowchart.decision;whiteSpace=wrap;" vertex="1" parent="1">
          <mxGeometry x="710" y="530" width="100" height="100" as="geometry" />
        </mxCell>
        <mxCell id="7QJD5H1uCndJbY1FMB_5-20" style="edgeStyle=orthogonalEdgeStyle;rounded=0;orthogonalLoop=1;jettySize=auto;html=1;entryX=1;entryY=0.5;entryDx=0;entryDy=0;" edge="1" parent="1" source="7QJD5H1uCndJbY1FMB_5-21" target="7QJD5H1uCndJbY1FMB_5-23">
          <mxGeometry relative="1" as="geometry">
            <Array as="points">
              <mxPoint x="990" y="414" />
            </Array>
          </mxGeometry>
        </mxCell>
        <mxCell id="7QJD5H1uCndJbY1FMB_5-21" value="Création univers" style="rounded=1;whiteSpace=wrap;html=1;absoluteArcSize=1;arcSize=14;strokeWidth=2;" vertex="1" parent="1">
          <mxGeometry x="930" y="530" width="120" height="100" as="geometry" />
        </mxCell>
        <mxCell id="7QJD5H1uCndJbY1FMB_5-22" style="edgeStyle=orthogonalEdgeStyle;rounded=0;orthogonalLoop=1;jettySize=auto;html=1;entryX=1;entryY=0.5;entryDx=0;entryDy=0;" edge="1" parent="1" source="7QJD5H1uCndJbY1FMB_5-23" target="7QJD5H1uCndJbY1FMB_5-5">
          <mxGeometry relative="1" as="geometry" />
        </mxCell>
        <mxCell id="7QJD5H1uCndJbY1FMB_5-23" value="Création du personnage" style="rounded=1;whiteSpace=wrap;html=1;absoluteArcSize=1;arcSize=14;strokeWidth=2;" vertex="1" parent="1">
          <mxGeometry x="710" y="364" width="100" height="100" as="geometry" />
        </mxCell>
        <mxCell id="7QJD5H1uCndJbY1FMB_5-24" value="Univers existant" style="text;html=1;strokeColor=none;fillColor=none;align=center;verticalAlign=middle;whiteSpace=wrap;rounded=0;" vertex="1" parent="1">
          <mxGeometry x="760" y="490" width="60" height="30" as="geometry" />
        </mxCell>
        <mxCell id="7QJD5H1uCndJbY1FMB_5-25" value="Univers non existant" style="text;html=1;strokeColor=none;fillColor=none;align=center;verticalAlign=middle;whiteSpace=wrap;rounded=0;" vertex="1" parent="1">
          <mxGeometry x="840" y="540" width="60" height="30" as="geometry" />
        </mxCell>
        <mxCell id="7QJD5H1uCndJbY1FMB_5-26" style="edgeStyle=orthogonalEdgeStyle;rounded=0;orthogonalLoop=1;jettySize=auto;html=1;" edge="1" parent="1" source="7QJD5H1uCndJbY1FMB_5-28" target="7QJD5H1uCndJbY1FMB_5-63">
          <mxGeometry relative="1" as="geometry">
            <mxPoint x="520" y="630" as="targetPoint" />
          </mxGeometry>
        </mxCell>
        <mxCell id="7QJD5H1uCndJbY1FMB_5-27" style="edgeStyle=orthogonalEdgeStyle;rounded=0;orthogonalLoop=1;jettySize=auto;html=1;entryX=1;entryY=0.5;entryDx=0;entryDy=0;" edge="1" parent="1" source="7QJD5H1uCndJbY1FMB_5-28" target="7QJD5H1uCndJbY1FMB_5-36">
          <mxGeometry relative="1" as="geometry">
            <Array as="points">
              <mxPoint x="190" y="1200" />
            </Array>
          </mxGeometry>
        </mxCell>
        <mxCell id="7QJD5H1uCndJbY1FMB_5-28" value="Choix personnage" style="rhombus;whiteSpace=wrap;html=1;" vertex="1" parent="1">
          <mxGeometry x="145" y="1020" width="90" height="100" as="geometry" />
        </mxCell>
        <mxCell id="7QJD5H1uCndJbY1FMB_5-29" value="Personnage non existant" style="text;html=1;strokeColor=none;fillColor=none;align=center;verticalAlign=middle;whiteSpace=wrap;rounded=0;" vertex="1" parent="1">
          <mxGeometry x="540" y="900" width="60" height="30" as="geometry" />
        </mxCell>
        <mxCell id="7QJD5H1uCndJbY1FMB_5-30" value="Personnage existant" style="text;html=1;strokeColor=none;fillColor=none;align=center;verticalAlign=middle;whiteSpace=wrap;rounded=0;" vertex="1" parent="1">
          <mxGeometry x="230" y="1120" width="60" height="30" as="geometry" />
        </mxCell>
        <mxCell id="7QJD5H1uCndJbY1FMB_5-31" value="Sortie du programme" style="text;html=1;strokeColor=none;fillColor=none;align=center;verticalAlign=middle;whiteSpace=wrap;rounded=0;" vertex="1" parent="1">
          <mxGeometry x="50" y="540" width="60" height="30" as="geometry" />
        </mxCell>
        <mxCell id="7QJD5H1uCndJbY1FMB_5-32" style="edgeStyle=orthogonalEdgeStyle;rounded=0;orthogonalLoop=1;jettySize=auto;html=1;" edge="1" parent="1" source="7QJD5H1uCndJbY1FMB_5-34" target="7QJD5H1uCndJbY1FMB_5-28">
          <mxGeometry relative="1" as="geometry" />
        </mxCell>
        <mxCell id="7QJD5H1uCndJbY1FMB_5-33" style="edgeStyle=orthogonalEdgeStyle;rounded=0;orthogonalLoop=1;jettySize=auto;html=1;" edge="1" parent="1" source="7QJD5H1uCndJbY1FMB_5-34" target="7QJD5H1uCndJbY1FMB_5-36">
          <mxGeometry relative="1" as="geometry">
            <mxPoint x="-10" y="1200" as="targetPoint" />
          </mxGeometry>
        </mxCell>
        <mxCell id="7QJD5H1uCndJbY1FMB_5-34" value="Choix conversation" style="rhombus;whiteSpace=wrap;html=1;" vertex="1" parent="1">
          <mxGeometry x="145" y="850" width="90" height="100" as="geometry" />
        </mxCell>
        <mxCell id="7QJD5H1uCndJbY1FMB_5-35" style="edgeStyle=orthogonalEdgeStyle;rounded=0;orthogonalLoop=1;jettySize=auto;html=1;" edge="1" parent="1" source="7QJD5H1uCndJbY1FMB_5-36">
          <mxGeometry relative="1" as="geometry">
            <mxPoint x="-80" y="1310" as="targetPoint" />
          </mxGeometry>
        </mxCell>
        <mxCell id="7QJD5H1uCndJbY1FMB_5-36" value="Envoie un message" style="rounded=1;whiteSpace=wrap;html=1;absoluteArcSize=1;arcSize=14;strokeWidth=2;" vertex="1" parent="1">
          <mxGeometry x="-200" y="1150" width="240" height="100" as="geometry" />
        </mxCell>
        <mxCell id="7QJD5H1uCndJbY1FMB_5-37" value="Nouvelle conversation" style="text;html=1;strokeColor=none;fillColor=none;align=center;verticalAlign=middle;whiteSpace=wrap;rounded=0;" vertex="1" parent="1">
          <mxGeometry x="210" y="960" width="60" height="30" as="geometry" />
        </mxCell>
        <mxCell id="7QJD5H1uCndJbY1FMB_5-38" value="Reprendre conversation" style="text;html=1;strokeColor=none;fillColor=none;align=center;verticalAlign=middle;whiteSpace=wrap;rounded=0;" vertex="1" parent="1">
          <mxGeometry x="30" y="840" width="60" height="60" as="geometry" />
        </mxCell>
        <mxCell id="7QJD5H1uCndJbY1FMB_5-39" style="edgeStyle=orthogonalEdgeStyle;rounded=0;orthogonalLoop=1;jettySize=auto;html=1;entryX=0;entryY=0.5;entryDx=0;entryDy=0;" edge="1" parent="1" source="7QJD5H1uCndJbY1FMB_5-41" target="7QJD5H1uCndJbY1FMB_5-36">
          <mxGeometry relative="1" as="geometry">
            <Array as="points">
              <mxPoint x="-220" y="1360" />
              <mxPoint x="-220" y="1200" />
            </Array>
          </mxGeometry>
        </mxCell>
        <mxCell id="7QJD5H1uCndJbY1FMB_5-40" style="edgeStyle=orthogonalEdgeStyle;rounded=0;orthogonalLoop=1;jettySize=auto;html=1;" edge="1" parent="1" source="7QJD5H1uCndJbY1FMB_5-41" target="7QJD5H1uCndJbY1FMB_5-44">
          <mxGeometry relative="1" as="geometry">
            <mxPoint x="-80" y="1500" as="targetPoint" />
          </mxGeometry>
        </mxCell>
        <mxCell id="7QJD5H1uCndJbY1FMB_5-41" value="Reçoit une réponse" style="rounded=1;whiteSpace=wrap;html=1;absoluteArcSize=1;arcSize=14;strokeWidth=2;" vertex="1" parent="1">
          <mxGeometry x="-200" y="1310" width="240" height="100" as="geometry" />
        </mxCell>
        <mxCell id="7QJD5H1uCndJbY1FMB_5-42" style="edgeStyle=orthogonalEdgeStyle;rounded=0;orthogonalLoop=1;jettySize=auto;html=1;entryX=0;entryY=0.5;entryDx=0;entryDy=0;" edge="1" parent="1" source="7QJD5H1uCndJbY1FMB_5-44" target="7QJD5H1uCndJbY1FMB_5-5">
          <mxGeometry relative="1" as="geometry">
            <Array as="points">
              <mxPoint x="-320" y="1510" />
              <mxPoint x="-320" y="413" />
            </Array>
          </mxGeometry>
        </mxCell>
        <mxCell id="7QJD5H1uCndJbY1FMB_5-43" style="edgeStyle=orthogonalEdgeStyle;rounded=0;orthogonalLoop=1;jettySize=auto;html=1;" edge="1" parent="1" source="7QJD5H1uCndJbY1FMB_5-44" target="7QJD5H1uCndJbY1FMB_5-45">
          <mxGeometry relative="1" as="geometry">
            <mxPoint x="300" y="1510" as="targetPoint" />
          </mxGeometry>
        </mxCell>
        <mxCell id="7QJD5H1uCndJbY1FMB_5-44" value="Fin conversation" style="strokeWidth=2;html=1;shape=mxgraph.flowchart.decision;whiteSpace=wrap;" vertex="1" parent="1">
          <mxGeometry x="-130" y="1460" width="100" height="100" as="geometry" />
        </mxCell>
        <mxCell id="7QJD5H1uCndJbY1FMB_5-45" value="Sortie" style="verticalLabelPosition=bottom;verticalAlign=top;html=1;shape=mxgraph.flowchart.or;" vertex="1" parent="1">
          <mxGeometry x="260" y="1475" width="70" height="70" as="geometry" />
        </mxCell>
        <mxCell id="7QJD5H1uCndJbY1FMB_5-46" value="Retour menu principal" style="text;html=1;strokeColor=none;fillColor=none;align=center;verticalAlign=middle;whiteSpace=wrap;rounded=0;" vertex="1" parent="1">
          <mxGeometry x="-250" y="1475" width="60" height="30" as="geometry" />
        </mxCell>
        <mxCell id="7QJD5H1uCndJbY1FMB_5-47" value="Fin programme" style="text;html=1;strokeColor=none;fillColor=none;align=center;verticalAlign=middle;whiteSpace=wrap;rounded=0;" vertex="1" parent="1">
          <mxGeometry x="80" y="1470" width="60" height="30" as="geometry" />
        </mxCell>
        <mxCell id="7QJD5H1uCndJbY1FMB_5-48" style="edgeStyle=orthogonalEdgeStyle;rounded=0;orthogonalLoop=1;jettySize=auto;html=1;" edge="1" parent="1" source="7QJD5H1uCndJbY1FMB_5-50" target="7QJD5H1uCndJbY1FMB_5-53">
          <mxGeometry relative="1" as="geometry" />
        </mxCell>
        <mxCell id="7QJD5H1uCndJbY1FMB_5-49" style="edgeStyle=orthogonalEdgeStyle;rounded=0;orthogonalLoop=1;jettySize=auto;html=1;fontSize=22;" edge="1" parent="1" source="7QJD5H1uCndJbY1FMB_5-50">
          <mxGeometry relative="1" as="geometry">
            <mxPoint x="115" y="60" as="targetPoint" />
          </mxGeometry>
        </mxCell>
        <mxCell id="7QJD5H1uCndJbY1FMB_5-50" value="Possède un compte" style="strokeWidth=2;html=1;shape=mxgraph.flowchart.decision;whiteSpace=wrap;" vertex="1" parent="1">
          <mxGeometry x="-70" y="10" width="100" height="100" as="geometry" />
        </mxCell>
        <mxCell id="7QJD5H1uCndJbY1FMB_5-51" value="Oui" style="text;html=1;strokeColor=none;fillColor=none;align=center;verticalAlign=middle;whiteSpace=wrap;rounded=0;" vertex="1" parent="1">
          <mxGeometry x="50" y="10" width="60" height="30" as="geometry" />
        </mxCell>
        <mxCell id="7QJD5H1uCndJbY1FMB_5-52" style="edgeStyle=orthogonalEdgeStyle;rounded=0;orthogonalLoop=1;jettySize=auto;html=1;" edge="1" parent="1" source="7QJD5H1uCndJbY1FMB_5-53" target="7QJD5H1uCndJbY1FMB_5-56">
          <mxGeometry relative="1" as="geometry" />
        </mxCell>
        <mxCell id="7QJD5H1uCndJbY1FMB_5-53" value="Créer un compte" style="rounded=1;whiteSpace=wrap;html=1;absoluteArcSize=1;arcSize=14;strokeWidth=2;" vertex="1" parent="1">
          <mxGeometry x="-97.5" y="160" width="155" height="100" as="geometry" />
        </mxCell>
        <mxCell id="7QJD5H1uCndJbY1FMB_5-54" style="edgeStyle=orthogonalEdgeStyle;rounded=0;orthogonalLoop=1;jettySize=auto;html=1;entryX=0.25;entryY=0;entryDx=0;entryDy=0;" edge="1" parent="1" source="7QJD5H1uCndJbY1FMB_5-56" target="7QJD5H1uCndJbY1FMB_5-5">
          <mxGeometry relative="1" as="geometry" />
        </mxCell>
        <mxCell id="7QJD5H1uCndJbY1FMB_5-55" style="edgeStyle=orthogonalEdgeStyle;rounded=0;orthogonalLoop=1;jettySize=auto;html=1;" edge="1" parent="1" source="7QJD5H1uCndJbY1FMB_5-56" target="7QJD5H1uCndJbY1FMB_5-56">
          <mxGeometry relative="1" as="geometry">
            <mxPoint x="-180" y="334" as="targetPoint" />
            <Array as="points">
              <mxPoint x="-20" y="400" />
              <mxPoint x="-180" y="400" />
              <mxPoint x="-180" y="334" />
            </Array>
          </mxGeometry>
        </mxCell>
        <mxCell id="7QJD5H1uCndJbY1FMB_5-56" value="Entrer logs" style="rhombus;whiteSpace=wrap;html=1;" vertex="1" parent="1">
          <mxGeometry x="-60" y="293.5" width="80" height="80" as="geometry" />
        </mxCell>
        <mxCell id="7QJD5H1uCndJbY1FMB_5-57" value="Non" style="text;html=1;strokeColor=none;fillColor=none;align=center;verticalAlign=middle;whiteSpace=wrap;rounded=0;" vertex="1" parent="1">
          <mxGeometry x="-10" y="110" width="60" height="30" as="geometry" />
        </mxCell>
        <mxCell id="7QJD5H1uCndJbY1FMB_5-58" value="Log ok" style="text;html=1;strokeColor=none;fillColor=none;align=center;verticalAlign=middle;whiteSpace=wrap;rounded=0;" vertex="1" parent="1">
          <mxGeometry x="40" y="300" width="60" height="30" as="geometry" />
        </mxCell>
        <mxCell id="7QJD5H1uCndJbY1FMB_5-59" value="Log incorrects" style="text;html=1;strokeColor=none;fillColor=none;align=center;verticalAlign=middle;whiteSpace=wrap;rounded=0;" vertex="1" parent="1">
          <mxGeometry x="-240" y="350" width="60" height="30" as="geometry" />
        </mxCell>
        <mxCell id="7QJD5H1uCndJbY1FMB_5-60" value="&lt;font style=&quot;font-size: 25px;&quot;&gt;&lt;b&gt;Programme principal&lt;/b&gt;&lt;/font&gt;" style="text;html=1;strokeColor=none;fillColor=none;align=center;verticalAlign=middle;whiteSpace=wrap;rounded=0;fontSize=22;" vertex="1" parent="1">
          <mxGeometry x="2.5" y="-50" width="475" height="30" as="geometry" />
        </mxCell>
        <mxCell id="7QJD5H1uCndJbY1FMB_5-61" style="edgeStyle=orthogonalEdgeStyle;rounded=0;orthogonalLoop=1;jettySize=auto;html=1;entryX=0.5;entryY=0;entryDx=0;entryDy=0;entryPerimeter=0;fontSize=22;" edge="1" parent="1" target="7QJD5H1uCndJbY1FMB_5-8">
          <mxGeometry relative="1" as="geometry">
            <mxPoint x="222.5" y="110" as="sourcePoint" />
          </mxGeometry>
        </mxCell>
        <mxCell id="7QJD5H1uCndJbY1FMB_5-62" value="Identification" style="shape=umlState;rounded=1;verticalAlign=top;spacingTop=5;umlStateSymbol=collapseState;absoluteArcSize=1;arcSize=10;fontSize=22;" vertex="1" parent="1">
          <mxGeometry x="120" y="10" width="190" height="100" as="geometry" />
        </mxCell>
        <mxCell id="7QJD5H1uCndJbY1FMB_5-63" value="Création personnage" style="shape=umlState;rounded=1;verticalAlign=top;spacingTop=5;umlStateSymbol=collapseState;absoluteArcSize=1;arcSize=10;fontSize=18;" vertex="1" parent="1">
          <mxGeometry x="320" y="550" width="340" height="60" as="geometry" />
        </mxCell>
        <mxCell id="7QJD5H1uCndJbY1FMB_5-64" value="Démarrer convesation" style="shape=umlState;rounded=1;verticalAlign=top;spacingTop=5;umlStateSymbol=collapseState;absoluteArcSize=1;arcSize=10;fontSize=18;" vertex="1" parent="1">
          <mxGeometry x="95" y="680" width="190" height="60" as="geometry" />
        </mxCell>
      </root>
    </mxGraphModel>
  </diagram>
  <diagram id="LwZZTJNDHiPLFPrjv55C" name="Page-5">
    <mxGraphModel dx="954" dy="551" grid="1" gridSize="10" guides="1" tooltips="1" connect="1" arrows="1" fold="1" page="1" pageScale="1" pageWidth="827" pageHeight="1169" math="0" shadow="0">
      <root>
        <mxCell id="0" />
        <mxCell id="1" parent="0" />
      </root>
    </mxGraphModel>
  </diagram>
</mxfile>
